<svg width="52" height="35" viewBox="0 0 52 35" fill="none" xmlns="http://www.w3.org/2000/svg">
<path d="M29.9802 31.0408C28.9711 31.9088 28.9321 33.3511 29.8931 34.2622C30.8541 35.1737 32.4509 35.2089 33.4597 34.3409L29.9802 31.0408ZM51.1192 19.1499C52.1283 18.2819 52.1673 16.8397 51.2063 15.9285C50.2453 15.0171 48.6485 14.9818 47.6397 15.8499L51.1192 19.1499ZM47.6397 19.1499C48.6485 20.018 50.2453 19.9827 51.2063 19.0713C52.1673 18.1601 52.1283 16.7179 51.1192 15.8499L47.6397 19.1499ZM33.4597 0.658882C32.4509 -0.209039 30.8541 -0.173857 29.8931 0.737449C28.9321 1.64876 28.9711 3.09108 29.9802 3.95897L33.4597 0.658882ZM49.3795 19.7785C50.7727 19.7785 51.9022 18.7583 51.9022 17.4999C51.9022 16.2415 50.7727 15.2213 49.3795 15.2213V19.7785ZM2.28744 15.2213C0.89415 15.2213 -0.235352 16.2415 -0.235352 17.4999C-0.235352 18.7583 0.89415 19.7785 2.28744 19.7785V15.2213ZM33.4597 34.3409L51.1192 19.1499L47.6397 15.8499L29.9802 31.0408L33.4597 34.3409ZM51.1192 15.8499L33.4597 0.658882L29.9802 3.95897L47.6397 19.1499L51.1192 15.8499ZM49.3795 15.2213H2.28744V19.7785H49.3795V15.2213Z" fill="#171E31"/>
</svg>
