<svg width="34" height="26" viewBox="0 0 34 26" fill="none" xmlns="http://www.w3.org/2000/svg">
<g clip-path="url(#clip0_648_456)">
<path d="M19.8237 22.9699C19.1831 23.587 19.1583 24.6122 19.7684 25.2599C20.3784 25.9078 21.392 25.9329 22.0324 25.3159L19.8237 22.9699ZM33.2423 14.517C33.8829 13.8999 33.9077 12.8747 33.2976 12.227C32.6876 11.579 31.674 11.554 31.0336 12.171L33.2423 14.517ZM31.0336 14.517C31.674 15.134 32.6876 15.109 33.2976 14.461C33.9077 13.8133 33.8829 12.7881 33.2423 12.171L31.0336 14.517ZM22.0324 1.37215C21.392 0.755172 20.3784 0.780182 19.7684 1.42801C19.1583 2.07583 19.1831 3.10114 19.8237 3.7181L22.0324 1.37215ZM32.138 14.9638C33.0224 14.9638 33.7394 14.2386 33.7394 13.344C33.7394 12.4494 33.0224 11.7242 32.138 11.7242V14.9638ZM2.24473 11.7242C1.3603 11.7242 0.643311 12.4494 0.643311 13.344C0.643311 14.2386 1.3603 14.9638 2.24473 14.9638V11.7242ZM22.0324 25.3159L33.2423 14.517L31.0336 12.171L19.8237 22.9699L22.0324 25.3159ZM33.2423 12.171L22.0324 1.37215L19.8237 3.7181L31.0336 14.517L33.2423 12.171ZM32.138 11.7242H2.24473V14.9638H32.138V11.7242Z" fill="#F7F7F7"/>
</g>
<defs>
<clipPath id="clip0_648_456">
<rect width="32.7972" height="24.8806" fill="white" transform="translate(0.792725 0.903809)"/>
</clipPath>
</defs>
</svg>
